HIERARCHY
ROOT Hips
{
	OFFSET 0.00000 0.00000 0.00000
	CHANNELS 6 Xposition Yposition Zposition Zrotation Yrotation Xrotation 
	JOINT LHipJoint
	{
		OFFSET 0 0 0
		CHANNELS 3 Zrotation Yrotation Xrotation
		JOINT LeftUpLeg
		{
			OFFSET 1.26600 -1.82114 0.91038
			CHANNELS 3 Zrotation Yrotation Xrotation
			JOINT LeftLeg
			{
				OFFSET 2.50076 -6.87080 0.00000
				CHANNELS 3 Zrotation Yrotation Xrotation
				JOINT LeftFoot
				{
					OFFSET 2.57364 -7.07102 0.00000
					CHANNELS 3 Zrotation Yrotation Xrotation
					JOINT LeftToeBase
					{
						OFFSET 0.13572 -0.37290 1.97004
						CHANNELS 3 Zrotation Yrotation Xrotation
						End Site
						{
							OFFSET 0.00000 -0.00000 1.01383
						}
					}
				}
			}
		}
	}
	JOINT RHipJoint
	{
		OFFSET 0 0 0
		CHANNELS 3 Zrotation Yrotation Xrotation
		JOINT RightUpLeg
		{
			OFFSET -1.20803 -1.82114 0.91038
			CHANNELS 3 Zrotation Yrotation Xrotation
			JOINT RightLeg
			{
				OFFSET -2.54916 -7.00377 0.00000
				CHANNELS 3 Zrotation Yrotation Xrotation
				JOINT RightFoot
				{
					OFFSET -2.56374 -7.04382 0.00000
					CHANNELS 3 Zrotation Yrotation Xrotation
					JOINT RightToeBase
					{
						OFFSET -0.23520 -0.64621 2.09921
						CHANNELS 3 Zrotation Yrotation Xrotation
						End Site
						{
							OFFSET -0.00000 -0.00000 1.10065
						}
					}
				}
			}
		}
	}
	JOINT LowerBack
	{
		OFFSET 0 0 0
		CHANNELS 3 Zrotation Yrotation Xrotation
		JOINT Spine
		{
			OFFSET 0.05492 2.10797 -0.12074
			CHANNELS 3 Zrotation Yrotation Xrotation
			JOINT Spine1
			{
				OFFSET 0.04577 2.11592 -0.04483
				CHANNELS 3 Zrotation Yrotation Xrotation
				JOINT Neck
				{
					OFFSET 0 0 0
					CHANNELS 3 Zrotation Yrotation Xrotation
					JOINT Neck1
					{
						OFFSET -0.10759 1.80167 0.15770
						CHANNELS 3 Zrotation Yrotation Xrotation
						JOINT Head
						{
							OFFSET 0.09237 1.77509 -0.40848
							CHANNELS 3 Zrotation Yrotation Xrotation
							End Site
							{
								OFFSET 0.03805 1.84093 -0.15754
							}
						}
					}
				}
				JOINT LeftShoulder
				{
					OFFSET 0 0 0
					CHANNELS 3 Zrotation Yrotation Xrotation
					JOINT LeftArm
					{
						OFFSET 3.42372 1.09575 -0.28209
						CHANNELS 3 Zrotation Yrotation Xrotation
						JOINT LeftForeArm
						{
							OFFSET 4.95681 -0.00000 0.00000
							CHANNELS 3 Zrotation Yrotation Xrotation
							JOINT LeftHand
							{
								OFFSET 3.40915 -0.00000 0.00000
								CHANNELS 3 Zrotation Yrotation Xrotation
								JOINT LeftFingerBase
								{
									OFFSET 0 0 0
									CHANNELS 3 Zrotation Yrotation Xrotation
									JOINT LeftHandIndex1
									{
										OFFSET 0.61640 -0.00000 0.00000
										CHANNELS 3 Zrotation Yrotation Xrotation
										End Site
										{
											OFFSET 0.49696 -0.00000 0.00000
										}
									}
								}
								JOINT LThumb
								{
									OFFSET 0 0 0
									CHANNELS 3 Zrotation Yrotation Xrotation
									End Site
									{
										OFFSET 0.50455 -0.00000 0.50455
									}
								}
							}
						}
					}
				}
				JOINT RightShoulder
				{
					OFFSET 0 0 0
					CHANNELS 3 Zrotation Yrotation Xrotation
					JOINT RightArm
					{
						OFFSET -3.24731 1.15872 -0.32221
						CHANNELS 3 Zrotation Yrotation Xrotation
						JOINT RightForeArm
						{
							OFFSET -5.35200 -0.00000 0.00000
							CHANNELS 3 Zrotation Yrotation Xrotation
							JOINT RightHand
							{
								OFFSET -3.43721 -0.00000 -0.00000
								CHANNELS 3 Zrotation Yrotation Xrotation
								JOINT RightFingerBase
								{
									OFFSET 0 0 0
									CHANNELS 3 Zrotation Yrotation Xrotation
									JOINT RightHandIndex1
									{
										OFFSET -0.72009 -0.00000 0.00000
										CHANNELS 3 Zrotation Yrotation Xrotation
										End Site
										{
											OFFSET -0.58056 -0.00000 0.00000
										}
									}
								}
								JOINT RThumb
								{
									OFFSET 0 0 0
									CHANNELS 3 Zrotation Yrotation Xrotation
									End Site
									{
										OFFSET -0.58942 -0.00000 0.58942
									}
								}
							}
						}
					}
				}
			}
		}
	}
}
MOTION
Frames: 11
Frame Time: .0083333
-0.5710 16.7538 -21.5681 -152.4910 86.4331 208.3820 0.0000 0.0000 0.0000 -21.5926 -2.0351 -6.0813 3.0399 10.7594 31.4727 0.1709 -19.7770 -15.3105 1.8121 8.4632 24.1300 0.0000 0.0000 0.0000 17.4430 4.4601 -32.8786 -9.3804 -17.0464 57.3966 -0.9092 0.4085 -17.8918 -0.9618 6.2446 -17.4959 -2.3902 -0.3276 6.7899 2.9885 -0.4428 3.2882 4.4655 -0.2237 -0.3659 -9.6091 -4.0583 -10.9247 3.4592 -2.6870 39.9156 2.9946 -1.4568 16.4096 0.0000 -0.0000 0.0000 -89.3080 8.0511 20.5536 17.7938 -27.8923 -4.4523 -0.0000 0.0000 -1.0592 20.3599 19.1374 6.9365 -7.1250 0.0000 -0.0000 -7.8604 50.1275 -0.9989 0.0000 -0.0000 0.0000 85.7140 -0.4896 12.7569 -16.2780 25.8961 -3.7665 0.0000 -0.0000 -10.3308 -21.0585 11.5215 -4.3977 7.1250 -0.0000 -0.0000 4.2615 -17.6788 2.7738
-0.5279 16.7531 -21.5773 -155.1940 86.8680 205.6600 0.0000 0.0000 0.0000 -22.0871 -2.0022 -5.7223 3.0112 10.7131 31.3183 0.2286 -19.4618 -15.5669 1.7870 8.4077 23.9593 0.0000 0.0000 0.0000 17.1376 4.6701 -33.1518 -9.1272 -16.8889 56.5289 -0.9480 1.4783 -17.9630 -0.8111 5.7474 -16.0532 -2.6872 -0.1036 6.8880 2.7770 -0.1694 3.3251 4.3953 -0.0894 -0.4073 -8.5024 -4.3940 -10.5878 2.6250 -3.2757 39.4081 2.3107 -1.6511 16.0516 0.0000 0.0000 0.0000 -89.1359 7.9696 20.6640 17.6958 -27.7659 -4.4066 -0.0000 0.0000 -1.0607 20.3390 19.0284 6.8912 -7.1250 0.0000 -0.0000 -7.8482 50.0112 -0.9748 0.0000 0.0000 0.0000 86.0231 -0.5104 12.2039 -16.2540 25.8638 -3.7561 0.0000 -0.0000 -9.9058 -21.0985 11.7117 -4.4783 7.1250 -0.0000 -0.0000 4.2392 -17.4733 2.7784
-0.4718 16.9402 -21.5798 -150.2220 86.7578 210.7230 0.0000 0.0000 0.0000 -21.6936 -1.6117 -5.1923 2.8318 10.4177 30.3403 0.1682 -19.4553 -15.0822 1.5617 7.8863 22.3694 0.0000 0.0000 0.0000 17.2576 5.1807 -34.2008 -8.9913 -16.8021 56.0600 -0.9275 4.6278 -17.2360 -0.0252 1.0254 -2.8187 -2.4009 -0.0283 6.9272 2.7068 -0.0530 3.3261 4.1511 -0.0269 -0.4411 -8.3281 -4.4181 -10.6163 2.8867 -3.4757 39.3036 2.3580 -1.6766 16.0152 0.0000 0.0000 0.0000 -88.9191 7.8211 20.5252 17.5872 -27.6253 -4.3561 -0.0000 0.0000 -0.8822 20.1859 18.8311 6.7676 -7.1250 0.0000 -0.0000 -7.9383 49.7824 -0.9412 0.0000 0.0000 0.0000 86.2817 -0.5620 12.5360 -16.2974 25.9222 -3.7750 0.0000 -0.0000 -10.3108 -20.6000 12.3204 -4.5855 7.1250 -0.0000 -0.0000 4.6057 -16.8730 3.0807
-0.4305 16.9409 -21.5710 -144.5330 86.3406 216.5700 0.0000 0.0000 0.0000 -20.9883 -1.1333 -4.8750 2.6282 10.0673 29.1950 0.0297 -19.7330 -14.1354 1.5168 7.7774 22.0400 0.0000 0.0000 0.0000 17.8963 5.2109 -34.7420 -8.7542 -16.6469 55.2361 -0.9249 5.4641 -17.1647 -0.0001 -0.0764 0.2098 -2.0926 -0.1207 6.9177 2.9045 -0.1514 3.2713 4.1893 -0.0718 -0.4845 -9.3176 -4.1233 -10.9752 3.8770 -3.0620 39.6853 3.0562 -1.5170 16.3250 -0.0000 -0.0000 0.0000 -89.0026 7.8400 20.5000 17.5842 -27.6214 -4.3547 -0.0000 0.0000 -1.1848 20.4762 18.9829 6.9255 -7.1250 0.0000 -0.0000 -7.7013 49.9860 -0.9516 -0.0000 -0.0000 0.0000 86.1384 -0.6299 13.1269 -16.3197 25.9522 -3.7848 0.0000 -0.0000 -10.5508 -20.4777 12.5796 -4.6499 7.1250 -0.0000 -0.0000 4.6987 -16.6103 3.1702
-0.3856 16.9367 -21.5772 -151.0700 86.6480 210.0390 0.0000 0.0000 0.0000 -21.6195 -0.9492 -4.1439 2.4388 9.7257 28.0929 0.0278 -19.4014 -13.8881 1.4965 7.7275 21.8893 0.0000 0.0000 0.0000 17.4263 5.0372 -35.1736 -8.5314 -16.4965 54.4550 -0.9274 5.8563 -17.1786 -0.0075 0.5607 -1.5407 -2.7178 -0.0979 6.9787 2.8333 -0.1635 3.3070 4.4718 -0.0851 -0.4763 -9.2347 -4.2199 -10.9534 3.5553 -3.1289 39.5443 2.8797 -1.5783 16.2438 -0.0000 0.0000 0.0000 -89.0772 7.8767 20.6717 17.6485 -27.7048 -4.3846 -0.0000 0.0000 -1.6053 20.6332 19.0886 7.0200 -7.1250 0.0000 -0.0000 -7.5798 50.1211 -0.9617 -0.0000 0.0000 0.0000 85.9781 -0.5565 13.1603 -16.2172 25.8142 -3.7400 0.0000 -0.0000 -10.2453 -20.8840 12.4608 -4.7063 7.1250 -0.0000 -0.0000 4.4130 -16.6984 2.9678
-0.3480 16.9389 -21.5871 -157.3780 86.7820 203.8470 0.0000 0.0000 0.0000 -22.1146 -1.0712 -4.0218 2.4280 9.7058 28.0291 0.0984 -19.2999 -14.4105 1.4053 7.4984 21.2006 0.0000 0.0000 0.0000 17.1995 4.6862 -35.6304 -8.2169 -16.2765 53.3401 -0.9388 5.6614 -17.2898 -0.1006 2.0455 -5.6314 -3.0352 -0.0479 7.0250 2.6597 -0.1230 3.2999 4.4685 -0.0674 -0.5121 -8.4447 -4.4879 -10.6608 2.8621 -3.5648 39.0999 2.3450 -1.7406 15.9315 -0.0000 -0.0000 0.0000 -88.9161 7.8475 20.8542 17.6578 -27.7168 -4.3889 -0.0000 0.0000 -1.5440 20.3423 18.8223 6.8211 -7.1250 0.0000 -0.0000 -7.7841 49.7982 -0.9258 -0.0000 -0.0000 0.0000 86.0020 -0.4741 13.0986 -16.0936 25.6474 -3.6864 0.0000 -0.0000 -9.9864 -20.9883 12.2270 -4.6449 7.1250 -0.0000 -0.0000 4.3327 -16.9365 2.8909
-0.3105 16.9461 -21.5859 -151.3260 86.4788 210.0770 0.0000 0.0000 0.0000 -21.5495 -0.9763 -4.1354 2.4194 9.6899 27.9781 0.0786 -19.5232 -14.3967 1.3751 7.4209 20.9686 0.0000 0.0000 0.0000 17.9162 4.5025 -36.0377 -7.8750 -16.0266 52.1113 -0.9375 5.5592 -17.2799 -0.1658 2.6232 -7.2313 -2.4905 -0.0468 7.0743 2.6463 -0.0878 3.2399 4.1424 -0.0416 -0.6084 -9.1376 -4.1813 -10.9297 3.8925 -3.2515 39.3307 2.9832 -1.5720 16.1351 -0.0000 -0.0000 0.0000 -88.6308 7.8170 21.0122 17.6819 -27.7479 -4.4001 -0.0000 0.0000 -1.4460 19.9131 18.4891 6.5534 -7.1250 0.0000 -0.0000 -8.1015 49.3858 -0.8813 -0.0000 -0.0000 0.0000 86.3285 -0.4588 12.7135 -16.0583 25.5997 -3.6711 0.0000 -0.0000 -9.3547 -20.9585 12.1117 -4.5948 7.1250 -0.0000 -0.0000 4.3496 -17.0615 2.8904
-0.2692 16.9450 -21.5824 -146.6750 86.3573 214.8610 0.0000 0.0000 0.0000 -21.1742 -0.9360 -4.1715 2.4251 9.7005 28.0123 0.0489 -19.6258 -14.2207 1.4989 7.7333 21.9069 0.0000 0.0000 0.0000 18.3835 4.7758 -36.2352 -7.5071 -15.7445 50.7672 -0.8957 5.6387 -16.8817 -0.1263 2.2908 -6.3100 -2.1143 0.0177 7.0702 2.5874 0.0217 3.2520 3.8593 0.0171 -0.6050 -8.3418 -4.4698 -10.6400 3.3201 -3.7701 38.8378 2.4849 -1.7553 15.8095 0.0000 0.0000 0.0000 -88.4029 7.6521 21.0910 17.6933 -27.7627 -4.4055 -0.0000 0.0000 -1.4269 19.8430 18.4089 6.5015 -7.1250 0.0000 -0.0000 -8.1457 49.2921 -0.8673 0.0000 0.0000 0.0000 86.7107 -0.3778 12.2447 -16.0549 25.5951 -3.6697 0.0000 -0.0000 -8.7531 -20.8815 12.3468 -4.6635 7.1250 -0.0000 -0.0000 4.4109 -16.8193 2.9548
-0.2259 16.9403 -21.5866 -146.8680 86.3612 214.8800 0.0000 0.0000 0.0000 -21.2368 -1.1486 -4.1024 2.4074 9.6675 27.9067 0.0323 -19.6109 -14.0719 1.7411 8.3047 23.6434 0.0000 0.0000 0.0000 18.5134 4.8292 -36.6343 -7.1568 -15.4625 49.4649 -0.8556 5.5244 -16.4952 -0.1213 2.2449 -6.1831 -1.9980 0.1058 6.9191 2.4369 0.1433 3.2720 3.6274 0.0773 -0.5109 -7.9477 -4.5923 -10.5088 3.2107 -4.0544 38.5812 2.3133 -1.8357 15.6491 0.0000 0.0000 0.0000 -88.2069 7.4336 21.2292 17.6459 -27.7013 -4.3834 -0.0000 0.0000 -1.1893 20.1725 18.5598 6.6696 -7.1250 0.0000 -0.0000 -7.8718 49.4994 -0.8782 0.0000 0.0000 0.0000 86.7844 -0.4390 12.7721 -16.1068 25.6652 -3.6921 0.0000 -0.0000 -9.4291 -20.4222 12.5319 -4.6189 7.1250 -0.0000 -0.0000 4.7356 -16.6658 3.1896
-0.1784 16.9267 -21.5937 -152.4340 86.4427 209.4280 0.0000 0.0000 0.0000 -21.7263 -1.4755 -3.8365 2.3892 9.6337 27.7985 0.0935 -19.3404 -14.3963 1.7484 8.3211 23.6935 0.0000 0.0000 0.0000 18.3611 4.3487 -37.1140 -6.8185 -15.1772 48.1846 -0.8374 5.4514 -16.3170 -0.1726 2.6761 -7.3783 -2.3600 0.0099 6.9075 2.4017 -0.0086 3.2645 3.8070 -0.0029 -0.4991 -8.3839 -4.4378 -10.5918 3.4564 -3.7867 38.6100 2.5414 -1.7547 15.6858 -0.0000 -0.0000 0.0000 -88.4409 7.4290 20.9116 17.6468 -27.7026 -4.3838 -0.0000 0.0000 -0.9253 20.2791 18.8190 6.7971 -7.1250 0.0000 -0.0000 -7.8444 49.7847 -0.9304 -0.0000 -0.0000 0.0000 86.4089 -0.5402 13.9779 -16.1167 25.6786 -3.6964 0.0000 -0.0000 -10.1503 -20.3343 12.3652 -4.5374 7.1250 -0.0000 -0.0000 4.7917 -16.8499 3.2084
-0.1285 16.9327 -21.5986 -161.3150 86.7933 200.5070 0.0000 0.0000 0.0000 -22.5497 -1.5226 -3.3330 2.3384 9.5380 27.4931 0.1997 -18.8054 -14.9259 1.5456 7.8475 22.2517 0.0000 0.0000 0.0000 17.6325 4.4170 -37.2211 -6.5335 -14.9261 47.0870 -0.8241 6.3176 -16.1893 -0.0266 1.0526 -2.8936 -3.2124 -0.1523 7.0298 2.4615 -0.2779 3.3173 4.3735 -0.1474 -0.4811 -9.3398 -4.0426 -10.8811 3.8528 -3.0449 38.7504 3.0095 -1.5324 15.8062 -0.0000 0.0000 0.0000 -89.0569 7.4700 19.9914 17.7193 -27.7963 -4.4176 -0.0000 0.0000 -0.7408 19.9425 18.8173 6.6751 -7.1250 0.0000 -0.0000 -8.1699 49.7298 -0.9584 -0.0000 0.0000 0.0000 85.9307 -0.3244 14.6314 -15.9691 25.4787 -3.6327 0.0000 -0.0000 -9.7092 -20.5141 12.0326 -4.4601 7.1250 -0.0000 -0.0000 4.6568 -17.1850 3.0833
